<svg width="24" height="25" viewBox="0 0 24 25" fill="currentColor"  xmlns="http://www.w3.org/2000/svg">
<g clip-path="url(#clip0_0_266)">
<path d="M7.78125 15.5417H20.4846C20.7991 15.5417 21.0751 15.3346 21.1602 15.0338L23.9729 5.23373C24.0333 5.02246 23.9919 4.7955 23.8588 4.61996C23.7255 4.44496 23.5183 4.3416 23.2971 4.3416H6.15802L5.6554 2.08995C5.58398 1.76931 5.29834 1.54163 4.96875 1.54163H0.703125C0.314575 1.54163 0 1.8548 0 2.24162C0 2.62862 0.314575 2.94161 0.703125 2.94161H4.40442L6.94354 14.3165C6.19647 14.6399 5.67188 15.3802 5.67188 16.2417C5.67188 17.3996 6.61816 18.3417 7.78125 18.3417H20.4846C20.8733 18.3417 21.1877 18.0287 21.1877 17.6417C21.1877 17.2549 20.8733 16.9417 20.4846 16.9417H7.78125C7.39398 16.9417 7.07813 16.628 7.07813 16.2417C7.07813 15.8554 7.39398 15.5417 7.78125 15.5417Z" />
<path d="M7.07812 20.4417C7.07812 21.5997 8.02441 22.5416 9.18768 22.5416C10.3508 22.5416 11.2971 21.5997 11.2971 20.4417C11.2971 19.2838 10.3508 18.3417 9.18768 18.3417C8.02441 18.3417 7.07812 19.2838 7.07812 20.4417Z" />
<path d="M16.9688 20.4417C16.9688 21.5997 17.915 22.5416 19.0781 22.5416C20.2414 22.5416 21.1875 21.5997 21.1875 20.4417C21.1875 19.2838 20.2414 18.3417 19.0781 18.3417C17.915 18.3417 16.9688 19.2838 16.9688 20.4417Z" />
</g>
<defs>
<clipPath id="clip0_0_266">
<rect width="24" height="24" transform="translate(0 0.041626)"/>
</clipPath>
</defs>
</svg>
