<svg width="32" height="32" viewBox="0 0 32 32" fill="currentColor"  xmlns="http://www.w3.org/2000/svg">
<path d="M31.814 0.180314C31.6432 0.0118144 31.3908 -0.0444355 31.165 0.0364394L5.20549 9.29248C4.30361 8.74098 3.15968 8.61186 2.11049 9.0463C0.368934 9.76773 -0.461127 11.7715 0.260246 13.5132C1.96143 17.62 4.41761 21.296 7.56079 24.4392C10.704 27.5824 14.38 30.0386 18.4868 31.7397C18.9133 31.9164 19.3553 32 19.7906 32C21.1328 31.9999 22.409 31.2046 22.9536 29.8894C23.3201 29.0046 23.2855 28.0522 22.9349 27.2344L31.9662 0.827375C32.0439 0.600376 31.9847 0.348876 31.814 0.180314ZM9.1361 9.21805L11.8873 8.23717C12.2103 8.5813 12.3678 9.05505 12.3047 9.53417C12.2491 9.95604 12.0326 10.3311 11.695 10.5902C11.3575 10.8492 10.9395 10.9612 10.5173 10.9057C10.0955 10.8502 9.72048 10.6337 9.46142 10.2961C9.22273 9.98504 9.10917 9.60555 9.1361 9.21805ZM21.7988 29.411C21.3411 30.5159 20.0698 31.0424 18.9651 30.5847C10.9627 27.27 4.72999 21.0373 1.41518 13.0348C1.19349 12.4996 1.19349 11.9102 1.41518 11.3749C1.63687 10.8397 2.05368 10.4229 2.58887 10.2012C3.12405 9.97954 3.71355 9.97954 4.24874 10.2012C4.78393 10.4229 5.20074 10.8397 5.42242 11.3749C6.84123 14.8003 8.88998 17.8665 11.5117 20.4882C14.1335 23.11 17.1996 25.1586 20.625 26.5775C21.7299 27.0351 22.2565 28.3063 21.7988 29.411ZM27.3514 10.458C27.2949 10.4567 27.2383 10.4534 27.1818 10.446C26.7599 10.3905 26.3849 10.174 26.1259 9.83642C25.8669 9.49886 25.7548 9.08055 25.8103 8.65873C25.925 7.78786 26.7266 7.17274 27.5978 7.28724C27.8665 7.32261 28.1188 7.42686 28.334 7.58542L27.3514 10.458ZM28.7494 6.37018C28.4449 6.20436 28.1104 6.09393 27.7609 6.04793C26.2064 5.84274 24.7756 6.9413 24.571 8.49561C24.4719 9.24848 24.6719 9.99492 25.1342 10.5974C25.5795 11.1777 26.217 11.5569 26.9361 11.6725L25.6939 15.3049L24.2653 14.2087C23.9914 13.9987 23.599 14.0502 23.389 14.324C23.1788 14.5979 23.2305 14.9902 23.5043 15.2003L25.2671 16.553L22.0363 26.0001C21.7653 25.7645 21.4532 25.5674 21.1036 25.4226C14.4799 22.6789 9.32117 17.5202 6.57761 10.8965C6.48223 10.6662 6.36373 10.4523 6.22705 10.2553L7.90073 9.65854C7.95917 10.1628 8.15273 10.6438 8.46979 11.057C8.93204 11.6595 9.60135 12.0459 10.3542 12.1449C10.4804 12.1615 10.6061 12.1698 10.7312 12.1698C11.353 12.1698 11.9545 11.9667 12.456 11.5819C13.0586 11.1195 13.4449 10.4503 13.5441 9.69729C13.633 9.02136 13.4753 8.35186 13.1211 7.79724L20.8903 5.02712L21.1847 5.73799C21.2845 5.97868 21.5171 6.12399 21.7624 6.12399C21.8421 6.12399 21.9231 6.10861 22.0013 6.07624C22.3202 5.94418 22.4716 5.57849 22.3396 5.25962L22.0692 4.6068L30.3641 1.64919L28.7494 6.37018Z" />
<path d="M6.75003 16.7672C6.74815 16.7643 6.74297 16.7563 6.74097 16.7535C6.54959 16.4664 6.16228 16.3893 5.87509 16.5805C5.58841 16.7714 5.51066 17.1588 5.70041 17.446C5.82009 17.6299 6.02034 17.7302 6.22491 17.7302C6.34065 17.7302 6.45772 17.6981 6.56222 17.6309C6.85259 17.4442 6.93665 17.0575 6.75003 16.7672Z" />
<path d="M5.79949 15.2145C5.19043 14.1466 4.64293 13.029 4.17224 11.8928C4.04018 11.5738 3.67437 11.4226 3.35568 11.5546C3.03674 11.6867 2.88537 12.0523 3.01749 12.3712C3.50812 13.5556 4.07887 14.7206 4.71374 15.8338C4.82905 16.0359 5.04005 16.1493 5.25718 16.1493C5.36217 16.1493 5.46861 16.1228 5.56624 16.0671C5.86605 15.896 5.97055 15.5143 5.79949 15.2145Z" />
<path d="M19.5582 7.99917C19.4343 7.9828 19.3085 7.97455 19.1842 7.97455C17.7644 7.97455 16.5538 9.03736 16.3683 10.4467C16.1637 12.001 17.2616 13.432 18.8158 13.6366C18.9397 13.653 19.0655 13.6612 19.1898 13.6612C20.6095 13.6612 21.8201 12.5984 22.0057 11.1889C22.2103 9.63473 21.1123 8.2038 19.5582 7.99917ZM20.7665 11.0258C20.6625 11.8156 19.9847 12.4112 19.1898 12.4112C19.1199 12.4112 19.049 12.4065 18.979 12.3973C18.1081 12.2826 17.493 11.4808 17.6076 10.6099C17.7116 9.82011 18.3893 9.22461 19.1842 9.22461C19.2541 9.22461 19.325 9.22923 19.395 9.23848C20.2658 9.35323 20.8811 10.155 20.7665 11.0258Z"/>
<path d="M19.3954 15.7733C19.2714 15.757 19.1457 15.7487 19.0214 15.7487C17.6016 15.7487 16.391 16.8115 16.2055 18.221C16.1063 18.9739 16.3063 19.7203 16.7686 20.3228C17.2309 20.9253 17.9001 21.3117 18.6531 21.4109C18.7769 21.4272 18.9026 21.4354 19.0268 21.4354C20.4466 21.4354 21.6573 20.3726 21.8429 18.9631C22.0475 17.409 20.9495 15.9781 19.3954 15.7733ZM20.6037 18.8C20.4997 19.5898 19.8218 20.1854 19.0269 20.1854C18.9571 20.1854 18.8862 20.1807 18.8163 20.1715C18.3944 20.1159 18.0194 19.8994 17.7604 19.5618C17.5013 19.2243 17.3892 18.806 17.4448 18.3841C17.5488 17.5943 18.2266 16.9988 19.0214 16.9988C19.0913 16.9988 19.1622 17.0034 19.2322 17.0127C20.103 17.1273 20.7182 17.9292 20.6037 18.8Z"/>
<path d="M15.2732 13.1841L13.3522 12.9312C13.0101 12.8857 12.696 13.127 12.6509 13.4692C12.6058 13.8114 12.8468 14.1253 13.1889 14.1704L15.1099 14.4233C15.1376 14.427 15.1651 14.4288 15.1923 14.4288C15.5011 14.4288 15.7697 14.1998 15.8111 13.8853C15.8563 13.5432 15.6154 13.2292 15.2732 13.1841Z" />
<path d="M14.2991 17.7964L14.1294 16.5074C14.0844 16.1651 13.7705 15.9241 13.4282 15.9693C13.086 16.0144 12.8451 16.3283 12.8902 16.6705L13.0599 17.9595C13.1012 18.2741 13.3698 18.503 13.6787 18.503C13.7059 18.503 13.7334 18.5012 13.761 18.4976C14.1032 18.4525 14.3441 18.1386 14.2991 17.7964Z" />
</svg>
