<svg width="33" height="33" viewBox="0 0 33 33" fill="currentColor" xmlns="http://www.w3.org/2000/svg">
<g clip-path="url(#clip0_1_2082)">
<path d="M17.6056 6.5746V3.73619L23.6003 2.30812C24.1501 2.17714 24.4822 1.61692 24.3332 1.07174L24.3069 0.975594C24.1651 0.45683 23.6385 0.143077 23.1148 0.265403L16.1676 1.88817C15.7151 1.99387 15.3951 2.3973 15.3951 2.86196V6.5746H8.16699C7.61471 6.5746 7.16699 7.02231 7.16699 7.5746V11.187H25.8337V7.5746C25.8337 7.02231 25.3859 6.5746 24.8337 6.5746H17.6056Z"/>
<path d="M7.25293 12.961L9.79504 30.2753C9.9424 31.3397 10.9003 32.1202 11.9687 32.1202H20.9214C22.0266 32.1202 22.9477 31.3397 23.095 30.2753L25.6371 12.961H7.25293Z"/>
</g>
<defs>
<clipPath id="clip0_1_2082">
<rect width="32" height="32.074" transform="translate(0.5 0.0462646)"/>
</clipPath>
</defs>
</svg>
