<svg width="33" height="33" viewBox="0 0 33 33" fill="currentColor" xmlns="http://www.w3.org/2000/svg">
<g clip-path="url(#clip0_1_2053)">
<path d="M26.6547 23.1045C26.7379 23.9702 26.4344 24.8197 25.8211 25.4349C25.2078 26.0502 24.3625 26.3543 23.4977 26.2717C22.7801 26.2021 22.0945 26.5983 21.7953 27.2577C21.4355 28.0497 20.7488 28.6329 19.9113 28.858C19.073 29.083 18.1883 28.9227 17.4828 28.4173C17.3628 28.3314 17.233 28.2677 17.0996 28.2168V32.1202C22.5463 31.9174 27.3036 28.9716 30.0391 24.6207L26.6732 22.6711C26.6504 22.8125 26.6406 22.9572 26.6547 23.1045Z" />
<path d="M13.8402 28.9576C13.5895 28.9576 13.3371 28.9248 13.0887 28.858C12.2512 28.6331 11.5645 28.0499 11.2047 27.2581C10.9051 26.5981 10.2188 26.2027 9.50195 26.2717C8.63633 26.3536 7.7918 26.0501 7.17891 25.435C6.56563 24.8197 6.26211 23.9702 6.34531 23.1043C6.35942 22.9571 6.34956 22.8125 6.32676 22.6711L2.96094 24.6207C5.69644 28.9716 10.4537 31.9174 15.9004 32.1202V28.2169C15.767 28.2677 15.6372 28.3315 15.5172 28.4173C15.0207 28.7728 14.4352 28.9576 13.8402 28.9576Z" />
<path d="M13.3985 4.47123C12.9083 4.60311 12.5067 4.94426 12.2962 5.40768C11.7845 6.53498 10.6083 7.21297 9.38643 7.09324C8.88057 7.04445 8.38564 7.22257 8.02705 7.58273C7.66807 7.94269 7.49033 8.43981 7.53916 8.94654C7.57808 9.35194 7.52373 9.74815 7.40332 10.1193L15.8997 15.0407V5.19757C15.5191 5.11662 15.15 4.96576 14.8196 4.7293C14.4067 4.43341 13.8884 4.33995 13.3985 4.47123ZM13.5667 10.9865C12.661 11.5111 11.5029 11.1997 10.9801 10.2912C10.4572 9.38253 10.7675 8.22069 11.6731 7.69611C12.5788 7.17153 13.7369 7.48284 14.2598 8.39144C14.7826 9.30006 14.4723 10.4619 13.5667 10.9865Z" />
<path d="M5.36172 21.3958C4.57266 21.0355 3.99141 20.3467 3.7668 19.5065C3.54219 18.666 3.70234 17.7778 4.20625 17.0696C4.62578 16.4796 4.62578 15.6868 4.20625 15.097C3.70234 14.3886 3.54219 13.5004 3.7668 12.66C3.99141 11.8197 4.57266 11.131 5.36172 10.7704C5.4959 10.7091 5.61582 10.6283 5.72637 10.5378L2.35801 8.58673C1.17388 10.826 0.5 13.3767 0.5 16.0832C0.5 18.7898 1.17388 21.3404 2.35801 23.5797L5.72647 21.6286C5.61587 21.5381 5.4959 21.4572 5.36172 21.3958Z" />
<path d="M19.9113 3.30847C20.7488 3.53342 21.4355 4.11657 21.7953 4.9084C22.0945 5.56836 22.7801 5.96457 23.498 5.89482C24.3609 5.81154 25.2082 6.11644 25.8211 6.73152C26.4344 7.34681 26.7379 8.19625 26.6547 9.06216C26.6406 9.20936 26.6504 9.35402 26.6732 9.49535L30.0391 7.54575C27.3036 3.19492 22.5463 0.249049 17.0996 0.0462646V3.94964C17.233 3.89879 17.3628 3.83504 17.4828 3.74916C18.1883 3.24381 19.073 3.08293 19.9113 3.30847Z" />
<path d="M4.9262 19.1948C5.05745 19.6864 5.39769 20.0895 5.8598 20.3003C6.22908 20.4692 6.54388 20.7145 6.80408 21.0047L15.3006 16.0833L6.80403 11.1618C6.54388 11.452 6.22903 11.6972 5.8598 11.866C5.39769 12.0771 5.05745 12.4801 4.9262 12.9718C4.79495 13.4634 4.8887 13.9833 5.18323 14.3977C5.90081 15.4059 5.90081 16.7607 5.18323 17.769C4.8887 18.1833 4.79495 18.7031 4.9262 19.1948ZM8.74085 14.1836C9.7866 14.1836 10.6344 15.0341 10.6344 16.0833C10.6344 17.1324 9.7866 17.983 8.74085 17.983C7.69505 17.983 6.8473 17.1324 6.8473 16.0833C6.8473 15.0341 7.69505 14.1836 8.74085 14.1836Z" />
<path d="M2.96094 7.54575L6.32676 9.49533C6.34961 9.35395 6.35942 9.20924 6.34531 9.06196C6.26211 8.19625 6.56563 7.34681 7.17891 6.73152C7.79219 6.11624 8.6375 5.81193 9.50234 5.89482C10.2176 5.96555 10.9055 5.56797 11.2047 4.90879C11.5645 4.11676 12.2512 3.53362 13.0887 3.30847C13.9266 3.08332 14.8113 3.24381 15.5172 3.74916C15.6372 3.83504 15.767 3.89879 15.9004 3.94964V0.0462646C10.4537 0.249049 5.69644 3.19492 2.96094 7.54575Z" />
<path d="M30.6419 8.58673L27.2734 10.5378C27.384 10.6284 27.504 10.7093 27.6382 10.7706C28.4272 11.131 29.0085 11.8197 29.2331 12.66C29.4577 13.5004 29.2976 14.3886 28.7937 15.0968C28.3741 15.6868 28.3741 16.4796 28.7937 17.0694C29.2976 17.7778 29.4577 18.666 29.2331 19.5065C29.0085 20.3467 28.4272 21.0355 27.6382 21.396C27.504 21.4573 27.3841 21.5382 27.2735 21.6286L30.6419 23.5797C31.826 21.3404 32.4999 18.7898 32.4999 16.0832C32.4999 13.3767 31.826 10.826 30.6419 8.58673Z" />
<path d="M7.53916 23.2198C7.49033 23.7267 7.66807 24.2238 8.02705 24.5838C8.38564 24.9437 8.88486 25.1205 9.38604 25.0733C10.6188 24.9533 11.7849 25.6321 12.2962 26.7588C12.5067 27.2221 12.9083 27.5634 13.3985 27.6953C13.888 27.827 14.4067 27.7331 14.8196 27.4372C15.15 27.2008 15.5191 27.0499 15.8997 26.9689V17.1258L7.40332 22.0472C7.52373 22.4183 7.57808 22.8145 7.53916 23.2198ZM10.9801 21.8754C11.5029 20.9667 12.661 20.6554 13.5667 21.18C14.4723 21.7046 14.7826 22.8665 14.2598 23.775C13.7369 24.6837 12.5788 24.995 11.6731 24.4704C10.7675 23.9458 10.4572 22.784 10.9801 21.8754Z" />
<path d="M19.6008 27.6953C20.091 27.5634 20.4926 27.2223 20.7031 26.7588C21.2148 25.6317 22.391 24.9555 23.6129 25.0733C24.1172 25.1201 24.6137 24.9435 24.9723 24.5838C25.3313 24.2238 25.509 23.7267 25.4602 23.22C25.4212 22.8146 25.4756 22.4184 25.596 22.0472L17.0996 17.1258V26.9688C17.4802 27.0498 17.8493 27.2007 18.1797 27.4372C18.593 27.7333 19.1117 27.8272 19.6008 27.6953ZM19.4326 21.18C20.3383 20.6554 21.4964 20.9667 22.0192 21.8754C22.5421 22.784 22.2318 23.9458 21.3262 24.4704C20.4205 24.995 19.2625 24.6837 18.7396 23.775C18.2167 22.8665 18.527 21.7046 19.4326 21.18Z" />
<path d="M28.0746 12.9717C27.9433 12.4801 27.6031 12.077 27.141 11.8662C26.7716 11.6973 26.4569 11.452 26.1967 11.1618L17.7002 16.0832L26.1967 21.0047C26.4569 20.7146 26.7717 20.4693 27.141 20.3005C27.6031 20.0894 27.9433 19.6864 28.0746 19.1947C28.2058 18.7031 28.1121 18.1832 27.8175 17.7688C27.1 16.7606 27.1 15.4058 27.8175 14.3975C28.1121 13.9832 28.2058 13.4634 28.0746 12.9717ZM24.2599 17.9829C23.2142 17.9829 22.3664 17.1324 22.3664 16.0832C22.3664 15.0341 23.2142 14.1835 24.2599 14.1835C25.3057 14.1835 26.1535 15.0341 26.1535 16.0832C26.1535 17.1324 25.3057 17.9829 24.2599 17.9829Z" />
<path d="M25.4602 8.94676C25.509 8.43984 25.3313 7.94271 24.9723 7.58275C24.6137 7.22279 24.1141 7.04487 23.6133 7.09327C22.3809 7.21182 21.2145 6.53461 20.7031 5.4077C20.4926 4.94448 20.091 4.60313 19.6008 4.47126C19.1113 4.33978 18.593 4.43344 18.1797 4.72932C17.8493 4.96579 17.4802 5.11664 17.0996 5.1976V15.0407L25.596 10.1194C25.4756 9.74825 25.4212 9.35209 25.4602 8.94676ZM22.0192 10.2912C21.4964 11.1998 20.3383 11.5111 19.4326 10.9865C18.527 10.4619 18.2167 9.30009 18.7396 8.39146C19.2625 7.48287 20.4205 7.17155 21.3262 7.69613C22.2318 8.22072 22.5421 9.38256 22.0192 10.2912Z" />
</g>
<defs>
<clipPath id="clip0_1_2053">
<rect width="32" height="32.074" transform="translate(0.5 0.0462646)"/>
</clipPath>
</defs>
</svg>
