<svg width="33" height="33" viewBox="0 0 33 33" fill="currentColor" xmlns="http://www.w3.org/2000/svg">
<g clip-path="url(#clip0_1_2071)">
<path d="M19.9589 19.4729C15.7032 19.4729 11.6924 20.1003 8.36036 21.2873C7.53783 21.5804 6.6816 21.729 5.81566 21.729C4.74778 21.729 3.71302 21.5006 2.76855 21.0802C3.54435 23.9714 6.18678 26.1063 9.31881 26.1063H24.8106C27.9747 26.1063 30.6394 23.9274 31.3843 20.991C31.0826 20.99 30.7825 20.9481 30.4922 20.8657C27.2793 19.9546 23.6369 19.4729 19.9589 19.4729Z" />
<path d="M10.5408 18.3409C11.87 18.0167 13.2596 17.7648 14.6866 17.5872C11.9045 14.5394 11.6453 9.40905 14.1833 6.06012C12.1397 6.12313 10.1447 6.45797 8.28711 7.03675C7.33536 7.95059 6.65994 9.12765 6.35925 10.4216C5.54636 13.6359 7.44295 17.2042 10.5408 18.3409Z" />
<path d="M7.60386 19.2125C4.82169 17.1265 3.3729 13.5208 4.20934 9.92164C4.31487 9.46756 4.45712 9.02503 4.62984 8.59619C3.8926 9.00862 3.19658 9.46741 2.55082 9.97067C-1.4576 13.0762 0.824821 19.533 5.81605 19.5208C6.41007 19.5208 7.01367 19.4207 7.60386 19.2125Z" />
<path d="M26.4458 9.29364C25.4727 9.77319 24.6881 10.5602 24.2115 11.5461C23.4101 13.2036 23.6107 15.1306 24.6767 16.5714C24.8416 16.7941 25.4472 17.4638 25.5035 17.6158C27.427 17.8613 29.31 18.2352 31.0951 18.7415C31.466 18.8467 31.8654 18.7505 32.1479 18.4878C32.4304 18.2251 32.5553 17.8339 32.4773 17.456C31.803 14.1884 29.5907 11.3312 26.4458 9.29364Z" />
<path d="M17.69 17.3241C19.2934 17.2411 20.92 17.2471 22.5384 17.3413C21.3144 15.323 21.1581 12.7899 22.2243 10.5847C22.704 9.59247 23.399 8.73943 24.2503 8.07689C22.1117 7.07037 19.6787 6.39878 17.0861 6.15308C13.5774 9.04807 13.9073 14.8495 17.69 17.3241Z" />
</g>
<defs>
<clipPath id="clip0_1_2071">
<rect width="32" height="32.074"  transform="translate(0.5 0.0462646)"/>
</clipPath>
</defs>
</svg>
